# xmcd
#
# Track frame offsets: 
#        150
#        18357
#        36739
#        56606
#        68827
#        83408
#        95629
#        108243
#        125023
#        136076
#        155693
#        169668
#
# Disc length: 2461 seconds
#
# Revision: 0
# Processed by: cddbd v1.5.2PL0 Copyright (c) Steve Scherf et al.
# Submitted via: ExactAudioCopyFreeDBPlugin 1.0
#
DISCID=9d099b0c
DTITLE=Kasia Lins  - Take My Tears
DYEAR=2013
DGENRE=Funk
TTITLE0=Liar
TTITLE1=Reason
TTITLE2=Ain't Gonna Wait
TTITLE3=Go Away
TTITLE4=Hold On
TTITLE5=Yesterday
TTITLE6=Sober
TTITLE7=Take My Tears
TTITLE8=Don't Know Me
TTITLE9=What If
TTITLE10=Wonder Why
TTITLE11=Cover Me
EXTD=
EXTT0=
EXTT1=
EXTT2=
EXTT3=
EXTT4=
EXTT5=
EXTT6=
EXTT7=
EXTT8=
EXTT9=
EXTT10=
EXTT11=
PLAYORDER=
